<svg xmlns="http://www.w3.org/2000/svg" width="100" height="86.899" viewBox="0 0 100 86.899">
  <g id="Group_13" data-name="Group 13" transform="translate(-301 -312.722)">
    <path id="Path_23" data-name="Path 23" d="M386.363,398.722H366.411l-5.039-12.36a25.575,25.575,0,0,0-1.1-2.747l-3.655-8.893H327.352l-8.96,24h-2.179l9.078-24.064,2.251-6.23,21.139-55.706h2.07c11.472,27.526,18.709,44.98,23.276,56.015l5.356,13.029c.162.413.323.793.475,1.163,1.757,4.355,1.928,4.8,1.928,4.8.228.546.456,1.059.674,1.534l.086.175Zm-30.5-26-14.466-35.5-13.257,35.5Z" fill="#323232"/>
    <path id="Path_24" data-name="Path 24" d="M400.927,393.378a4.864,4.864,0,1,1-4.866-4.923A4.893,4.893,0,0,1,400.927,393.378Z" fill="#323232"/>
  </g>
  <line id="Line_4" data-name="Line 4" x2="100" transform="translate(0 86)" fill="none" stroke="#323232" stroke-miterlimit="10" stroke-width="1.798"/>
</svg>
